<svg viewBox="0 0 1920 148" fill="none" xmlns="http://www.w3.org/2000/svg">
    <path d="M0 0.650024L45.8667 2.82205C91.7333 4.81305 183.467 9.15702 274.773 12.415C366.293 15.673 457.173 18.207 548.693 23.637C640 29.067 731.733 37.393 823.04 32.868C914.56 28.343 1005.44 10.967 1096.96 4.813C1188.27 -1.16 1280 4.27 1371.31 15.673C1462.83 27.257 1553.71 44.633 1645.23 48.977C1736.53 53.14 1828.27 44.09 1874.13 39.565L1920 35.04V246.81H1874.13C1828.27 246.81 1736.53 246.81 1645.23 246.81C1553.71 246.81 1462.83 246.81 1371.31 246.81C1280 246.81 1188.27 246.81 1096.96 246.81C1005.44 246.81 914.56 246.81 823.04 246.81C731.733 246.81 640 246.81 548.693 246.81C457.173 246.81 366.293 246.81 274.773 246.81C183.467 246.81 91.7333 246.81 45.8667 246.81H0V0.650024Z" fill="#081F44"/>
</svg>