<svg viewBox="0 0 48 48" fill="none" xmlns="http://www.w3.org/2000/svg">
    <path d="M25.0122 10.5001C24.1838 10.4934 23.5068 11.1596 23.5 11.988C23.4934 12.8164 24.1596 13.4933 24.988 13.5C27.4562 13.5199 29.4802 15.5439 29.5 18.0122C29.5068 18.8406 30.1838 19.5067 31.0122 19.5C31.8406 19.4933 32.5066 18.8164 32.5 17.988C32.4668 13.8818 29.1182 10.5332 25.0122 10.5001Z" fill="#D1D2E0"/>
    <path fill-rule="evenodd" clip-rule="evenodd" d="M7.62164 19.3704C7.5486 10.0278 14.8451 2.4242 24.0126 2.50058C33.159 2.57676 40.5476 10.271 40.6206 19.5969C40.6816 27.4126 35.3694 34.8636 28.1308 36.9342C28.2142 37.1056 28.2848 37.2714 28.334 37.4292C28.9984 39.5538 27.6216 41.6926 25.5002 42.1236V45C25.5002 45.8284 24.8286 46.5 24.0002 46.5C23.1718 46.5 22.5002 45.8284 22.5002 45V42.1236C20.3788 41.6926 19.0019 39.5538 19.6664 37.4292C19.7213 37.2534 19.8025 37.068 19.8984 36.8756C12.7139 34.6956 7.68232 27.1336 7.62164 19.3704ZM23.9876 5.50046C16.587 5.43882 10.5609 11.5874 10.6215 19.347C10.6836 27.2832 16.7375 34.439 24.0126 34.4996C31.3214 34.5604 37.682 27.4776 37.6206 19.6203C37.5598 11.844 31.4092 5.56228 23.9876 5.50046ZM23.9876 37.4996C24.3332 37.5024 24.6762 37.493 25.0164 37.4718C25.0324 37.5066 25.05 37.5412 25.069 37.5754L25.3984 38.1766L25.4726 38.3304C25.5734 38.6656 25.3734 39.09 24.8996 39.1844C24.8996 39.1844 24.8538 39.1914 24.7072 39.1956L24.0002 39.2004C23.67 39.2004 23.4548 39.2002 23.2932 39.1956C23.1466 39.1914 23.1008 39.1844 23.1008 39.1844C22.627 39.09 22.4274 38.6646 22.5282 38.3294C22.5318 38.3208 22.55 38.2774 22.6022 38.1766C22.6734 38.0388 22.7744 37.8572 22.9314 37.5754C22.9532 37.5364 22.9728 37.497 22.9908 37.4572C23.3198 37.4824 23.6522 37.4968 23.9876 37.4996Z" fill="#D1D2E0"/>
</svg>