<svg viewBox="0 0 44 44" fill="none" xmlns="http://www.w3.org/2000/svg">
    <path fill-rule="evenodd" clip-rule="evenodd" d="M25.5 2.12502C25.5 0.951405 24.5484 0 23.375 0C22.2014 0 21.25 0.951384 21.25 2.12498L21.2498 4.75303C19.8668 4.73779 18.493 4.88665 17.1589 5.20366C13.8891 3.14037 9.52614 3.40601 6.67824 6.25394C3.83031 9.10186 3.56464 13.4649 5.62793 16.7348C5.35974 17.8634 5.2119 19.0205 5.18196 20.1875H2.125C0.951405 20.1875 0 21.1389 0 22.3125C0 23.4861 0.951405 24.4375 2.125 24.4375H5.58737C6.13779 26.9805 7.23664 29.4648 8.85866 31.6984L6.99726 33.5599C6.16741 34.3897 6.16741 35.7353 6.99726 36.5651C7.82714 37.3949 9.1726 37.3949 10.0025 36.5651L11.7073 34.8602C13.9165 36.8479 16.472 38.2659 19.1377 39.0773C19.1292 39.1546 19.1248 39.233 19.1248 39.3125V41.4375C19.1248 42.6111 20.0764 43.5625 21.2498 43.5625C22.4234 43.5625 23.3748 42.6111 23.3748 41.4375V39.8474C27.8953 40.1255 32.3786 38.6705 35.7368 35.3124C39.2528 31.7964 40.6825 27.0466 40.2207 22.3125H41.4373C42.6109 22.3125 43.5623 21.3611 43.5623 20.1875C43.5623 19.0139 42.6109 18.0625 41.4373 18.0625H39.2906C38.4546 15.6325 37.1099 13.3117 35.2846 11.283L37.0961 9.47136C37.9262 8.64148 37.9262 7.29602 37.0961 6.46614C36.2663 5.63629 34.921 5.63629 34.091 6.46614L32.1228 8.43436C30.0764 6.9483 27.8194 5.90136 25.4998 5.31301L25.5 2.12502ZM9.97428 16.9434C10.5076 15.2221 11.4303 13.6425 12.7485 12.3242C14.0668 11.006 15.6464 10.0833 17.3676 9.55C21.8922 8.14816 27.4654 9.4344 31.5433 13.5124C37.22 19.189 37.4436 27.5952 32.7316 32.3072C28.0196 37.0192 19.6131 36.7957 13.9367 31.1191C9.8587 27.041 8.57244 21.468 9.97428 16.9434ZM18.996 22.0012C20.6556 23.661 20.6556 26.3519 18.996 28.0118C17.3362 29.6714 14.6453 29.6714 12.9856 28.0118C11.3259 26.3519 11.3259 23.661 12.9856 22.0012C14.6453 20.3416 17.3362 20.3416 18.996 22.0012ZM28.0115 18.996C29.6714 17.3363 29.6714 14.6454 28.0115 12.9857C26.3519 11.3259 23.6608 11.3259 22.0012 12.9857C20.3414 14.6454 20.3414 17.3363 22.0012 18.996C23.6608 20.6558 26.3519 20.6558 28.0115 18.996ZM26.5089 28.0118C27.7538 29.2566 27.7538 31.2747 26.5089 32.5195C25.2641 33.7643 23.246 33.7643 22.0012 32.5195C20.7564 31.2747 20.7564 29.2566 22.0012 28.0118C23.246 26.7669 25.2641 26.7669 26.5089 28.0118ZM32.5195 26.5092C33.7641 25.2643 33.7641 23.246 32.5195 22.0014C31.2747 20.7566 29.2564 20.7566 28.0115 22.0014C26.7669 23.246 26.7669 25.2643 28.0115 26.5092C29.2564 27.754 31.2747 27.754 32.5195 26.5092Z" fill="#D1D2E0"/>
</svg>