<svg viewBox="0 0 41 41" fill="none" xmlns="http://www.w3.org/2000/svg">
    <path d="M2.13538 17.9375C2.13538 18.6451 2.70902 19.2187 3.41663 19.2187C4.12423 19.2187 4.69788 18.6451 4.69788 17.9375H2.13538ZM5.25054 26.6951C4.97975 26.0413 4.23025 25.7309 3.57651 26.0017C2.92276 26.2725 2.61231 27.0219 2.8831 27.6757L5.25054 26.6951ZM23.459 37.1899L24.385 35.6254L22.1798 34.3201L21.2537 35.8847L23.459 37.1899ZM16.6149 35.6254L17.541 37.1899L19.7461 35.8847L18.82 34.3201L16.6149 35.6254ZM21.2537 35.8847C20.9245 36.441 20.0754 36.441 19.7461 35.8847L17.541 37.1899C18.8625 39.4227 22.1374 39.4227 23.459 37.1899L21.2537 35.8847ZM17.9375 4.69792H23.0625V2.13542H17.9375V4.69792ZM36.302 17.9375V19.6458H38.8645V17.9375H36.302ZM13.3292 31.1627C11.1845 31.1257 10.0607 30.9893 9.17984 30.6244L8.19922 32.9918C9.57438 33.5614 11.1406 33.6878 13.2851 33.7247L13.3292 31.1627ZM2.8831 27.6757C3.88006 30.0826 5.79234 31.9949 8.19922 32.9918L9.17984 30.6244C7.40084 29.8875 5.98743 28.4742 5.25054 26.6951L2.8831 27.6757ZM36.302 19.6458C36.302 21.6533 36.3014 23.0948 36.2238 24.2322C36.1469 25.3582 35.999 26.0924 35.7494 26.6951L38.1168 27.6757C38.5174 26.7088 38.6946 25.6631 38.7803 24.4066C38.8652 23.1618 38.8645 21.6183 38.8645 19.6458H36.302ZM27.7148 33.7247C29.8592 33.6878 31.4256 33.5614 32.8006 32.9918L31.8201 30.6244C30.9392 30.9893 29.8153 31.1257 27.6707 31.1627L27.7148 33.7247ZM35.7494 26.6951C35.0124 28.4742 33.5991 29.8875 31.8201 30.6244L32.8006 32.9918C35.2075 31.9949 37.1198 30.0826 38.1168 27.6757L35.7494 26.6951ZM23.0625 4.69792C25.8833 4.69792 27.909 4.69927 29.489 4.8495C31.0501 4.99792 32.0433 5.28256 32.8351 5.76781L34.1741 3.58292C32.9119 2.80947 31.4801 2.46477 29.7316 2.29851C28.0021 2.13407 25.8337 2.13542 23.0625 2.13542V4.69792ZM38.8645 17.9375C38.8645 15.1663 38.8659 12.9979 38.7014 11.2684C38.5352 9.51979 38.1904 8.08802 37.4171 6.82587L35.2321 8.16477C35.7174 8.95664 36.0021 9.94991 36.1505 11.5109C36.3007 13.091 36.302 15.1166 36.302 17.9375H38.8645ZM32.8351 5.76781C33.8121 6.36648 34.6335 7.18785 35.2321 8.16477L37.4171 6.82587C36.6072 5.50415 35.4959 4.39288 34.1741 3.58292L32.8351 5.76781ZM17.9375 2.13542C15.1662 2.13542 12.9978 2.13407 11.2683 2.29851C9.51975 2.46477 8.08798 2.80947 6.82583 3.58292L8.16473 5.76781C8.9566 5.28256 9.94987 4.99792 11.5109 4.8495C13.0909 4.69927 15.1166 4.69792 17.9375 4.69792V2.13542ZM4.69788 17.9375C4.69788 15.1166 4.69923 13.091 4.84946 11.5109C4.99788 9.94991 5.28252 8.95664 5.76777 8.16477L3.58288 6.82587C2.80943 8.08802 2.46473 9.51979 2.29847 11.2684C2.13403 12.9979 2.13538 15.1663 2.13538 17.9375H4.69788ZM6.82583 3.58292C5.50411 4.39288 4.39284 5.50415 3.58288 6.82587L5.76777 8.16477C6.36644 7.18785 7.18781 6.36648 8.16473 5.76781L6.82583 3.58292ZM18.82 34.3201C18.4732 33.7341 18.1688 33.217 17.8727 32.8108C17.5608 32.383 17.2032 31.9978 16.7072 31.7092L15.4189 33.9244C15.4999 33.9714 15.6102 34.0573 15.8018 34.3201C16.0091 34.6047 16.2434 34.9978 16.6149 35.6254L18.82 34.3201ZM13.2851 33.7247C14.0352 33.7377 14.5103 33.7473 14.8725 33.7872C15.2109 33.8248 15.3421 33.8797 15.4189 33.9244L16.7072 31.7092C16.2071 31.4183 15.6867 31.2992 15.1545 31.2403C14.6462 31.1841 14.0318 31.1749 13.3292 31.1627L13.2851 33.7247ZM24.385 35.6254C24.7564 34.9978 24.9907 34.6047 25.198 34.3201C25.3895 34.0573 25.4999 33.9714 25.5809 33.9244L24.2926 31.7092C23.7967 31.9978 23.439 32.383 23.1272 32.8108C22.8312 33.217 22.5267 33.7341 22.1798 34.3201L24.385 35.6254ZM27.6707 31.1627C26.9681 31.1749 26.3537 31.1841 25.8453 31.2403C25.3132 31.2992 24.7928 31.4183 24.2926 31.7092L25.5809 33.9244C25.6578 33.8797 25.789 33.8248 26.1274 33.7872C26.4895 33.7473 26.9646 33.7377 27.7148 33.7247L27.6707 31.1627Z" fill="#D1D2E0"/>
    <path d="M13.6666 18.7917H13.682M20.4846 18.7917H20.5M27.3179 18.7917H27.3333" stroke="#D1D2E0" stroke-width="5" stroke-linecap="round" stroke-linejoin="round"/>
</svg>