<svg viewBox="0 0 48 48" fill="none" xmlns="http://www.w3.org/2000/svg">
    <path d="M30 10V16" stroke="#D1D2E0" stroke-width="5" stroke-linecap="round"/>
    <path d="M30 32V38" stroke="#D1D2E0" stroke-width="5" stroke-linecap="round"/>
    <path d="M30 22V26" stroke="#D1D2E0" stroke-width="5" stroke-linecap="round"/>
    <path d="M8.88305 20.9114C7.58489 19.4676 5.93349 17.8694 6.15783 15.9407C6.71647 11.138 8.92029 10 15.2959 10H32.7039C39.0795 10 41.2833 11.138 41.8419 15.9407C42.0663 17.8694 40.4149 19.4676 39.1167 20.9114C38.4847 21.6144 37.9999 22.6074 37.9999 24C37.9999 25.3926 38.4847 26.3856 39.1167 27.0886C40.4149 28.5324 42.0663 30.1306 41.8419 32.0592C41.2833 36.862 39.0795 38 32.7039 38H15.2959C8.92029 38 6.71647 36.862 6.15783 32.0592C5.93349 30.1306 7.58489 28.5324 8.88305 27.0886C9.51507 26.3856 9.99985 25.3926 9.99985 24C9.99985 22.6074 9.51507 21.6144 8.88305 20.9114Z" stroke="#D1D2E0" stroke-width="5"/>
</svg>