<svg width="37" height="30" viewBox="0 0 37 30" fill="none" xmlns="http://www.w3.org/2000/svg">
    <path fill-rule="evenodd" clip-rule="evenodd" d="M11.6365 30C25.5984 30 33.2353 18.4565 33.2353 8.4473C33.2353 8.1187 33.2352 7.79257 33.213 7.46767C34.6986 6.39695 35.9807 5.06755 37 3.54641C35.6162 4.1593 34.1455 4.56124 32.6414 4.73845C34.225 3.79143 35.4109 2.30361 35.9788 0.548023C34.4877 1.43043 32.8578 2.05319 31.1577 2.38734C28.2828 -0.662329 23.4747 -0.810086 20.4166 2.05866C18.4464 3.90839 17.6083 6.66631 18.2206 9.29692C12.1175 8.99048 6.4306 6.11439 2.5752 1.38299C0.56055 4.84431 1.591 9.27066 4.92655 11.4933C3.7185 11.4582 2.53635 11.1337 1.48 10.5466V10.6428C1.48185 14.2481 4.0293 17.3525 7.5702 18.0669C6.4528 18.3715 5.2799 18.4156 4.144 18.196C5.13745 21.2825 7.9883 23.3966 11.2351 23.4576C8.547 25.5657 5.22625 26.7105 1.80745 26.7068C1.20435 26.705 0.60125 26.6698 0 26.5979C3.47245 28.8205 7.511 30 11.6365 29.9945" fill="#246FB4"/>
</svg>