<svg viewBox="0 0 48 48" fill="none" xmlns="http://www.w3.org/2000/svg">
    <path fill-rule="evenodd" clip-rule="evenodd" d="M15.0539 5.31498C19.6843 4.1266 24.8136 5.34348 28.4452 8.975C32.5114 13.0413 33.5514 18.9828 31.5732 24.0094L40.772 31.793C43.7198 34.2874 43.9062 38.7688 41.1756 41.4994C38.445 44.23 33.9638 44.0436 31.4694 41.0956L23.6878 31.8992C18.6596 33.8814 12.7143 32.8422 8.64614 28.774C5.01424 25.142 3.79748 20.012 4.9865 15.3813C5.38504 13.8291 7.3447 13.3376 8.4291 14.5155L14.5178 21.1294L19.1128 19.4409L20.8052 14.8415L14.1889 8.75852C13.0098 7.67442 13.501 5.71352 15.0539 5.31498Z" fill="#D1D2E0"/>
</svg>